<svg xmlns="http://www.w3.org/2000/svg" width="1280" height="640" viewBox="0 0 1280 640">
<defs><style>
  .name{font-family:'Cinzel',Georgia,serif;font-weight:600;letter-spacing:.08em;fill:#fff}
  .tag{font-family:'Jost',sans-serif;font-weight:300;letter-spacing:.34em;fill:#8FA6BC}
  .desc{font-family:'Jost',sans-serif;font-weight:300;fill:#B7C6D6}
</style></defs>
<rect width="1280" height="640" fill="#0E2740"/>
<g transform="translate(900,320) scale(2.8)" opacity="1">
  <g transform="translate(-100,-100)"><svg viewBox="0 0 200 200" width="100%" height="100%" fill="none" xmlns="http://www.w3.org/2000/svg" role="img" aria-label="NEURON"><g stroke="rgba(143,166,188,0.10)" stroke-width="8" stroke-linecap="round" stroke-linejoin="round"><polygon points="100,30 160.6,65 160.6,135 100,170 39.4,135 39.4,65"/><line x1="100" y1="100" x2="100" y2="30"/><line x1="100" y1="100" x2="160.6" y2="65"/><line x1="100" y1="100" x2="160.6" y2="135"/><line x1="100" y1="100" x2="100" y2="170"/><line x1="100" y1="100" x2="39.4" y2="135"/><line x1="100" y1="100" x2="39.4" y2="65"/></g><g fill="rgba(143,166,188,0.10)"><circle cx="100" cy="100" r="13"/><circle cx="100" cy="30" r="14"/><circle cx="160.6" cy="65" r="14"/><circle cx="160.6" cy="135" r="14"/><circle cx="100" cy="170" r="14"/><circle cx="39.4" cy="135" r="14"/><circle cx="39.4" cy="65" r="14"/></g></svg></g>
</g>
<g transform="translate(120,232)"><g transform="scale(0.44)"><svg viewBox="0 0 200 200" width="100%" height="100%" fill="none" xmlns="http://www.w3.org/2000/svg" role="img" aria-label="NEURON"><g stroke="#FFFFFF" stroke-width="8" stroke-linecap="round" stroke-linejoin="round"><polygon points="100,30 160.6,65 160.6,135 100,170 39.4,135 39.4,65"/><line x1="100" y1="100" x2="100" y2="30"/><line x1="100" y1="100" x2="160.6" y2="65"/><line x1="100" y1="100" x2="160.6" y2="135"/><line x1="100" y1="100" x2="100" y2="170"/><line x1="100" y1="100" x2="39.4" y2="135"/><line x1="100" y1="100" x2="39.4" y2="65"/></g><g fill="#FFFFFF"><circle cx="100" cy="100" r="13"/><circle cx="100" cy="30" r="14"/><circle cx="160.6" cy="65" r="14"/><circle cx="160.6" cy="135" r="14"/><circle cx="100" cy="170" r="14"/><circle cx="39.4" cy="135" r="14"/><circle cx="39.4" cy="65" r="14"/></g></svg></g></g>
<text x="232" y="290" class="name" font-size="92">NEURON</text>
<text x="236" y="338" class="tag" font-size="22">matrix homeserver</text>
<text x="122" y="430" class="desc" font-size="30">Your private chat, on your own server.</text>
<text x="122" y="474" class="desc" font-size="30">Self-hosted Matrix, end-to-end encrypted.</text>
</svg>